<?xml version="1.0" encoding="UTF-8" standalone="no"?>
<!DOCTYPE svg PUBLIC "-//W3C//DTD SVG 1.1//EN"
 "http://www.w3.org/Graphics/SVG/1.1/DTD/svg11.dtd">
<!-- Generated by graphviz version 2.38.0 (20140413.2041)
 -->
<!-- Title: G Pages: 1 -->
<svg width="599pt" height="337pt"
 viewBox="0.00 0.00 599.00 337.00" xmlns="http://www.w3.org/2000/svg" xmlns:xlink="http://www.w3.org/1999/xlink">
<g id="graph0" class="graph" transform="scale(1 1) rotate(0) translate(4 333)">
<title>G</title>
<polygon fill="white" stroke="none" points="-4,4 -4,-333 595,-333 595,4 -4,4"/>
<!-- user/AdminUser -->
<g id="node1" class="node"><title>user/AdminUser</title>
<polygon fill="#bfefff" stroke="black" points="553.5,-36 446.5,-36 446.5,-0 553.5,-0 553.5,-36"/>
<text text-anchor="middle" x="500" y="-14.3" font-family="Times,serif" font-size="14.00">user/AdminUser</text>
</g>
<!-- user/AdminWork -->
<g id="node2" class="node"><title>user/AdminWork</title>
<polygon fill="#bfefff" stroke="black" points="556.5,-90 443.5,-90 443.5,-54 556.5,-54 556.5,-90"/>
<text text-anchor="middle" x="500" y="-68.3" font-family="Times,serif" font-size="14.00">user/AdminWork</text>
</g>
<!-- user/TestingSkywalker -->
<g id="node3" class="node"><title>user/TestingSkywalker</title>
<polygon fill="#bfefff" stroke="black" points="570.5,-144 429.5,-144 429.5,-108 570.5,-108 570.5,-144"/>
<text text-anchor="middle" x="500" y="-122.3" font-family="Times,serif" font-size="14.00">user/TestingSkywalker</text>
</g>
<!-- role/EC2Role&#45;Admin -->
<g id="node4" class="node"><title>role/EC2Role&#45;Admin</title>
<polygon fill="#bfefff" stroke="black" points="567,-198 433,-198 433,-162 567,-162 567,-198"/>
<text text-anchor="middle" x="500" y="-176.3" font-family="Times,serif" font-size="14.00">role/EC2Role&#45;Admin</text>
</g>
<!-- role/LambdaRole&#45;WithAdmin -->
<g id="node5" class="node"><title>role/LambdaRole&#45;WithAdmin</title>
<polygon fill="#bfefff" stroke="black" points="591,-329 409,-329 409,-293 591,-293 591,-329"/>
<text text-anchor="middle" x="500" y="-307.3" font-family="Times,serif" font-size="14.00">role/LambdaRole&#45;WithAdmin</text>
</g>
<!-- user/EMR&#45;User -->
<g id="node6" class="node"><title>user/EMR&#45;User</title>
<polygon fill="#fadbd8" stroke="black" points="303.5,-275 200.5,-275 200.5,-239 303.5,-239 303.5,-275"/>
<text text-anchor="middle" x="252" y="-253.3" font-family="Times,serif" font-size="14.00">user/EMR&#45;User</text>
</g>
<!-- user/EMR&#45;User&#45;&gt;role/EC2Role&#45;Admin -->
<g id="edge1" class="edge"><title>user/EMR&#45;User&#45;&gt;role/EC2Role&#45;Admin</title>
<path fill="none" stroke="black" d="M303.805,-241.209C329.877,-233.095 362.143,-223.038 391,-214 404.283,-209.84 418.482,-205.379 432.072,-201.103"/>
<polygon fill="black" stroke="black" points="433.351,-204.37 441.839,-198.029 431.25,-197.693 433.351,-204.37"/>
<text text-anchor="middle" x="368" y="-231.8" font-family="Times,serif" font-size="14.00">EC2</text>
</g>
<!-- user/LambdaFullAccess -->
<g id="node7" class="node"><title>user/LambdaFullAccess</title>
<polygon fill="#fadbd8" stroke="black" points="326,-329 178,-329 178,-293 326,-293 326,-329"/>
<text text-anchor="middle" x="252" y="-307.3" font-family="Times,serif" font-size="14.00">user/LambdaFullAccess</text>
</g>
<!-- user/LambdaFullAccess&#45;&gt;role/LambdaRole&#45;WithAdmin -->
<g id="edge2" class="edge"><title>user/LambdaFullAccess&#45;&gt;role/LambdaRole&#45;WithAdmin</title>
<path fill="none" stroke="black" d="M326.142,-311C348.82,-311 374.221,-311 398.422,-311"/>
<polygon fill="black" stroke="black" points="398.71,-314.5 408.71,-311 398.71,-307.5 398.71,-314.5"/>
<text text-anchor="middle" x="368" y="-314.8" font-family="Times,serif" font-size="14.00">Lambda</text>
</g>
<!-- user/PowerUser -->
<g id="node8" class="node"><title>user/PowerUser</title>
<polygon fill="#fadbd8" stroke="black" points="303.5,-221 200.5,-221 200.5,-185 303.5,-185 303.5,-221"/>
<text text-anchor="middle" x="252" y="-199.3" font-family="Times,serif" font-size="14.00">user/PowerUser</text>
</g>
<!-- user/PowerUser&#45;&gt;role/EC2Role&#45;Admin -->
<g id="edge3" class="edge"><title>user/PowerUser&#45;&gt;role/EC2Role&#45;Admin</title>
<path fill="none" stroke="black" d="M303.673,-198.262C338.017,-195.051 384.029,-190.749 422.769,-187.127"/>
<polygon fill="black" stroke="black" points="423.336,-190.59 432.967,-186.174 422.684,-183.62 423.336,-190.59"/>
<text text-anchor="middle" x="368" y="-198.8" font-family="Times,serif" font-size="14.00">EC2</text>
</g>
<!-- role/EC2&#45;Fleet&#45;Manager -->
<g id="node9" class="node"><title>role/EC2&#45;Fleet&#45;Manager</title>
<polygon fill="#fadbd8" stroke="black" points="327,-167 177,-167 177,-131 327,-131 327,-167"/>
<text text-anchor="middle" x="252" y="-145.3" font-family="Times,serif" font-size="14.00">role/EC2&#45;Fleet&#45;Manager</text>
</g>
<!-- role/EC2&#45;Fleet&#45;Manager&#45;&gt;role/EC2Role&#45;Admin -->
<g id="edge4" class="edge"><title>role/EC2&#45;Fleet&#45;Manager&#45;&gt;role/EC2Role&#45;Admin</title>
<path fill="none" stroke="black" d="M327.142,-158.343C357.392,-162.155 392.35,-166.56 422.808,-170.399"/>
<polygon fill="black" stroke="black" points="422.592,-173.899 432.951,-171.677 423.468,-166.954 422.592,-173.899"/>
<text text-anchor="middle" x="368" y="-170.8" font-family="Times,serif" font-size="14.00">EC2</text>
</g>
<!-- role/EMR&#45;Service&#45;Role -->
<g id="node10" class="node"><title>role/EMR&#45;Service&#45;Role</title>
<polygon fill="#fadbd8" stroke="black" points="325,-113 179,-113 179,-77 325,-77 325,-113"/>
<text text-anchor="middle" x="252" y="-91.3" font-family="Times,serif" font-size="14.00">role/EMR&#45;Service&#45;Role</text>
</g>
<!-- role/EMR&#45;Service&#45;Role&#45;&gt;role/EC2Role&#45;Admin -->
<g id="edge5" class="edge"><title>role/EMR&#45;Service&#45;Role&#45;&gt;role/EC2Role&#45;Admin</title>
<path fill="none" stroke="black" d="M315.628,-113.103C339.661,-120.88 367.053,-130.773 391,-142 399.489,-145.98 400.439,-149.177 409,-153 413.629,-155.067 418.461,-157.031 423.377,-158.885"/>
<polygon fill="black" stroke="black" points="422.312,-162.221 432.906,-162.314 424.682,-155.634 422.312,-162.221"/>
<text text-anchor="middle" x="368" y="-145.8" font-family="Times,serif" font-size="14.00">EC2</text>
</g>
<!-- user/EC2Manager -->
<g id="node11" class="node"><title>user/EC2Manager</title>
<polygon fill="#fadbd8" stroke="black" points="116,-167 7.10543e-15,-167 7.10543e-15,-131 116,-131 116,-167"/>
<text text-anchor="middle" x="58" y="-145.3" font-family="Times,serif" font-size="14.00">user/EC2Manager</text>
</g>
<!-- user/EC2Manager&#45;&gt;role/EC2&#45;Fleet&#45;Manager -->
<g id="edge6" class="edge"><title>user/EC2Manager&#45;&gt;role/EC2&#45;Fleet&#45;Manager</title>
<path fill="none" stroke="black" d="M116.086,-149C131.832,-149 149.258,-149 166.211,-149"/>
<polygon fill="black" stroke="black" points="166.686,-152.5 176.686,-149 166.686,-145.5 166.686,-152.5"/>
<text text-anchor="middle" x="146.5" y="-152.8" font-family="Times,serif" font-size="14.00">EC2</text>
</g>
</g>
</svg>
